<?xml version="1.0" encoding="utf-8"?>
<!-- Generator: Adobe Illustrator 17.0.0, SVG Export Plug-In . SVG Version: 6.00 Build 0)  -->
<!DOCTYPE svg PUBLIC "-//W3C//DTD SVG 1.1//EN" "http://www.w3.org/Graphics/SVG/1.1/DTD/svg11.dtd">
<svg version="1.1" id="Layer_1" xmlns="http://www.w3.org/2000/svg" xmlns:xlink="http://www.w3.org/1999/xlink" x="0px" y="0px"
	 width="64px" height="43.25px" viewBox="0 10.375 64 43.25" enable-background="new 0 10.375 64 43.25" xml:space="preserve">
<g id="GLOBE">
	<path fill="#939598" d="M32.125,14.662c-15.275,0-27.7,7.775-27.7,17.338s12.425,17.338,27.7,17.338s27.7-7.775,27.7-17.338
		S47.4,14.662,32.125,14.662z M21.612,18.088c-1.763,1.287-3.275,2.9-4.438,4.725h-5.5C14.25,20.787,17.675,19.15,21.612,18.088z
		 M9.462,24.888h6.575c-0.862,1.875-1.4,3.925-1.525,6.075h-7.95C6.8,28.787,7.825,26.725,9.462,24.888z M6.55,33.037h7.95
		c0.125,2.15,0.663,4.2,1.525,6.075H9.45C7.825,37.275,6.8,35.213,6.55,33.037z M11.675,41.188h5.5
		c1.175,1.838,2.675,3.438,4.438,4.725C17.675,44.85,14.25,43.213,11.675,41.188z M31.088,47.225c-4.65-0.3-8.75-2.6-11.4-6.037
		h11.4V47.225z M31.088,39.112H18.35c-0.987-1.838-1.612-3.9-1.763-6.075h14.5V39.112z M31.088,30.963h-14.5
		c0.15-2.188,0.775-4.237,1.763-6.075h12.737V30.963z M31.088,22.812h-11.4c2.65-3.438,6.75-5.737,11.4-6.037V22.812z
		 M52.575,22.812h-5.5c-1.175-1.838-2.675-3.438-4.438-4.725C46.575,19.15,50,20.787,52.575,22.812z M33.162,16.775
		c4.65,0.3,8.75,2.6,11.4,6.037h-11.4V16.775z M33.162,24.888H45.9c0.987,1.838,1.612,3.9,1.763,6.075h-14.5V24.888z M33.162,33.037
		h14.5c-0.15,2.188-0.775,4.237-1.763,6.075H33.162V33.037z M33.162,41.188h11.4c-2.65,3.438-6.75,5.738-11.4,6.037V41.188z
		 M42.638,45.912c1.763-1.287,3.275-2.9,4.438-4.725h5.5C50,43.213,46.575,44.85,42.638,45.912z M54.787,39.112h-6.575
		c0.862-1.875,1.4-3.925,1.525-6.075h7.95C57.45,35.213,56.425,37.275,54.787,39.112z M49.737,30.963
		c-0.125-2.15-0.662-4.2-1.525-6.075h6.575c1.638,1.838,2.65,3.9,2.9,6.075H49.737z"/>
</g>
<g id="GRSS">
	<path fill="#FFFFFF" d="M8.4,43.612c-0.163,0.2-0.212,0.412-0.05,0.55l0,0C8.487,44.287,8.7,44.212,8.875,44
		c0.137-0.175,0.225-0.4,0.062-0.537C8.762,43.312,8.538,43.438,8.4,43.612 M20.487,49.963c-0.025,0.113,0.038,0.2,0.138,0.225
		c0.112,0.025,0.225-0.025,0.288-0.113c0.013-0.025,0.025-0.05,0.025-0.075l0.038-0.162C20.725,49.787,20.525,49.787,20.487,49.963
		 M18.638,48.613c-0.188-0.062-0.325,0.088-0.375,0.2l0.525,0.175C18.825,48.887,18.837,48.688,18.638,48.613 M52.487,45.338
		c-0.188,0.125-0.138,0.362-0.013,0.55c0.138,0.213,0.338,0.325,0.5,0.213l0,0c0.162-0.1,0.15-0.312,0.013-0.55
		C52.862,45.362,52.675,45.225,52.487,45.338 M13.85,46.637c-0.175-0.088-0.337,0.037-0.4,0.137l0.5,0.25
		C13.987,46.925,14.038,46.725,13.85,46.637 M48.888,47.625c-0.013-0.025-0.025-0.05-0.037-0.075c-0.088-0.1-0.2-0.137-0.312-0.088
		c-0.162,0.075-0.225,0.262-0.112,0.525c0.088,0.213,0.263,0.325,0.45,0.25c0.112-0.05,0.175-0.162,0.15-0.275
		c0-0.037-0.025-0.088-0.037-0.125L48.888,47.625z M24.612,50.125c-0.212-0.037-0.35,0.137-0.388,0.375
		c-0.038,0.25,0.062,0.438,0.25,0.463c0.138,0.025,0.263-0.05,0.312-0.175c0.013-0.025,0.025-0.062,0.025-0.1l0.038-0.2
		c0-0.025,0.013-0.062,0.013-0.088C24.837,50.275,24.75,50.15,24.612,50.125 M33.688,50.675c-0.225,0.012-0.3,0.238-0.3,0.463
		c0.013,0.262,0.125,0.45,0.325,0.438l0,0c0.188-0.012,0.3-0.2,0.287-0.463C33.987,50.9,33.9,50.662,33.688,50.675 M40.85,49.812
		c-0.2,0.037-0.237,0.238-0.225,0.363l0.55-0.113C41.15,49.95,41.062,49.762,40.85,49.812 M36.7,50.438
		c-0.2,0.025-0.263,0.213-0.263,0.338l0.55-0.062C36.975,50.6,36.912,50.412,36.7,50.438 M27.237,49.912
		C27.125,49.9,27.062,49.9,27.025,49.9l-0.062,0.575L27.15,50.5c0.237,0.025,0.388-0.075,0.4-0.262
		C27.575,50.05,27.463,49.938,27.237,49.912 M29.088,50.588c-0.2-0.012-0.3,0.162-0.312,0.287l0.562,0.037
		C29.338,50.8,29.3,50.6,29.088,50.588 M56,42.6c-0.15,0.138-0.088,0.325,0,0.425l0.412-0.388C56.325,42.562,56.15,42.45,56,42.6
		 M7.1,42.15l0.4,0.4c0.075-0.075,0.188-0.25,0.038-0.4C7.387,42,7.2,42.075,7.1,42.15 M58.15,42.225
		c-0.1,0.112-0.225,0.175-0.338,0.175c-0.125,0-0.263-0.062-0.425-0.213l-0.463-0.425l-0.138,0.15l-0.263-0.237l0.138-0.15
		l-0.213-0.188l0.213-0.425l0.3,0.275l0.225-0.25l0.263,0.237l-0.225,0.25l0.412,0.375c0.138,0.125,0.225,0.15,0.325,0.037
		c0.05-0.05,0.062-0.075,0.087-0.112l0.262,0.237C58.3,42.025,58.238,42.125,58.15,42.225 M56.912,43.487
		c-0.375,0.35-0.8,0.338-1.125-0.013c-0.263-0.275-0.375-0.763,0-1.112c0.362-0.338,0.75-0.188,1.013,0.088
		c0.05,0.062,0.1,0.112,0.112,0.15L56.2,43.263c0.15,0.138,0.35,0.075,0.513-0.075c0.112-0.112,0.2-0.213,0.263-0.338l0.263,0.188
		C57.188,43.188,57.062,43.35,56.912,43.487 M55.525,44.65l-0.963-1.175l0.362-0.3l0.963,1.175L55.525,44.65z M54.85,45.225
		c-0.4,0.287-0.825,0.237-1.112-0.15c-0.263-0.362-0.237-0.825,0.225-1.162c0.1-0.075,0.225-0.138,0.325-0.162l0.15,0.325
		c-0.062,0.013-0.138,0.05-0.237,0.125c-0.2,0.15-0.225,0.388-0.075,0.588c0.162,0.225,0.4,0.237,0.588,0.1
		c0.088-0.062,0.15-0.138,0.188-0.2l0.25,0.25C55.112,45,55,45.112,54.85,45.225 M53.15,46.388L53.15,46.388
		c-0.375,0.237-0.825,0.175-1.088-0.237s-0.162-0.85,0.263-1.112c0.388-0.25,0.825-0.15,1.075,0.25
		C53.688,45.75,53.5,46.175,53.15,46.388 M51.325,47.463c-0.213,0.113-0.45,0.175-0.588,0.162l-0.1-0.387
		c0.138,0,0.35-0.037,0.525-0.137c0.188-0.1,0.25-0.238,0.188-0.363c-0.062-0.113-0.188-0.138-0.45-0.088
		c-0.362,0.062-0.662,0-0.8-0.275c-0.175-0.312-0.037-0.7,0.4-0.925c0.213-0.112,0.388-0.15,0.525-0.162l0.088,0.388
		c-0.088,0-0.25,0.025-0.425,0.125s-0.225,0.225-0.175,0.325C50.575,46.238,50.7,46.238,51,46.2c0.388-0.05,0.638,0.037,0.775,0.3
		C51.925,46.787,51.838,47.188,51.325,47.463 M49.65,48.775c-0.088,0.2-0.287,0.325-0.487,0.412
		c-0.188,0.088-0.388,0.125-0.55,0.113l-0.062-0.363c0.112,0.012,0.287,0,0.45-0.075c0.2-0.088,0.312-0.262,0.2-0.525l-0.037-0.088
		l0,0c-0.037,0.15-0.138,0.275-0.3,0.35c-0.35,0.15-0.713-0.025-0.888-0.412c-0.2-0.45-0.037-0.863,0.312-1.012
		c0.188-0.088,0.35-0.05,0.463,0.025l0,0l-0.062-0.175l0.375-0.162c0.037,0.088,0.075,0.213,0.175,0.425l0.338,0.775
		C49.7,48.325,49.75,48.562,49.65,48.775 M47.375,49.225l-0.3-0.787c-0.062-0.188-0.175-0.287-0.338-0.225
		c-0.125,0.05-0.162,0.162-0.162,0.25c0,0.037,0.013,0.075,0.025,0.113l0.312,0.825l-0.438,0.162l-0.362-0.975
		c-0.062-0.175-0.125-0.325-0.175-0.45L46.325,48l0.1,0.188h0.013c0.025-0.113,0.112-0.3,0.35-0.4c0.287-0.113,0.588,0,0.737,0.425
		l0.312,0.838L47.375,49.225z M45.525,49.875l-0.475-1.438l0.45-0.15l0.475,1.438L45.525,49.875z M44.525,50.213
		c-0.188,0.05-0.375,0.062-0.5,0.037l-0.013-0.35c0.1,0.025,0.287,0.025,0.425-0.012s0.175-0.1,0.162-0.175
		c-0.025-0.075-0.075-0.1-0.263-0.113c-0.338-0.012-0.5-0.137-0.55-0.312c-0.075-0.275,0.088-0.55,0.45-0.65
		c0.175-0.05,0.325-0.05,0.438-0.037l0.013,0.338c-0.075-0.012-0.213-0.025-0.338,0.012c-0.112,0.037-0.162,0.1-0.138,0.162
		c0.025,0.075,0.088,0.088,0.287,0.1c0.3,0.012,0.463,0.125,0.525,0.325C45.1,49.825,44.95,50.088,44.525,50.213 M43.15,50.55
		l-0.2-0.812c-0.05-0.188-0.15-0.3-0.312-0.262c-0.125,0.037-0.175,0.137-0.188,0.225c0,0.037,0,0.075,0.013,0.113l0.213,0.85
		l-0.463,0.113l-0.25-1c-0.05-0.188-0.088-0.338-0.125-0.463l0.4-0.1l0.075,0.2h0.013c0.037-0.113,0.15-0.287,0.4-0.35
		c0.3-0.075,0.575,0.075,0.688,0.5l0.213,0.875L43.15,50.55z M41.162,51.037c-0.5,0.1-0.85-0.137-0.95-0.6
		c-0.075-0.375,0.075-0.838,0.588-0.95c0.475-0.1,0.737,0.238,0.812,0.613c0.013,0.075,0.025,0.15,0.025,0.188l-0.963,0.188
		c0.05,0.188,0.263,0.25,0.475,0.2c0.162-0.037,0.275-0.075,0.4-0.15l0.125,0.3C41.55,50.938,41.362,51,41.162,51.037 M39.15,51.412
		c-0.237,0.037-0.475,0.012-0.6-0.037l0.037-0.4c0.138,0.05,0.338,0.075,0.537,0.05c0.213-0.037,0.312-0.137,0.287-0.275
		c-0.025-0.125-0.125-0.188-0.388-0.238c-0.362-0.062-0.625-0.225-0.662-0.525c-0.05-0.35,0.2-0.662,0.688-0.738
		c0.237-0.037,0.412-0.012,0.55,0.025l-0.05,0.387c-0.088-0.025-0.25-0.062-0.45-0.025s-0.287,0.137-0.275,0.25
		c0.025,0.137,0.15,0.175,0.425,0.238c0.388,0.075,0.588,0.238,0.638,0.537C39.938,50.975,39.725,51.312,39.15,51.412 M37.438,51
		l-0.975,0.1c0.037,0.2,0.237,0.275,0.463,0.25c0.162-0.012,0.287-0.05,0.412-0.113l0.1,0.312c-0.15,0.075-0.338,0.125-0.537,0.15
		c-0.513,0.05-0.838-0.213-0.888-0.688c-0.037-0.387,0.162-0.825,0.675-0.887c0.487-0.05,0.713,0.312,0.75,0.688
		C37.45,50.887,37.45,50.963,37.438,51 M35.487,51.825c-0.15,0.012-0.287-0.037-0.362-0.1c-0.088-0.088-0.15-0.225-0.162-0.438
		l-0.05-0.625l-0.2,0.012l-0.025-0.35l0.2-0.012l-0.025-0.287l0.45-0.162l0.025,0.412l0.338-0.025L35.7,50.6l-0.325,0.025
		l0.037,0.55c0.013,0.188,0.062,0.262,0.2,0.25c0.062,0,0.1-0.012,0.138-0.025l0.025,0.35
		C35.725,51.787,35.612,51.812,35.487,51.825 M33.725,51.925L33.725,51.925c-0.45,0.012-0.8-0.262-0.812-0.75
		s0.287-0.812,0.787-0.838c0.463-0.012,0.787,0.287,0.8,0.75C34.513,51.637,34.125,51.912,33.725,51.925 M32.45,51.925l-0.463-0.012
		L32,51.088c0-0.225-0.062-0.35-0.213-0.35c-0.112,0-0.188,0.075-0.225,0.162c-0.013,0.037-0.013,0.075-0.013,0.113L31.537,51.9
		l-0.463-0.012l0.013-0.85c0-0.188-0.062-0.325-0.213-0.325c-0.125,0-0.2,0.088-0.225,0.162c-0.013,0.037-0.025,0.075-0.025,0.125
		l-0.013,0.887l-0.463-0.012l0.013-1.037c0-0.188,0-0.35,0-0.488h0.4l0.013,0.213h0.013c0.062-0.1,0.2-0.238,0.463-0.238
		c0.2,0,0.35,0.113,0.412,0.262l0,0c0.062-0.075,0.125-0.137,0.2-0.188c0.088-0.05,0.175-0.075,0.287-0.075
		c0.287,0,0.513,0.213,0.5,0.662L32.45,51.925z M29.725,51.262L28.75,51.2c0,0.2,0.188,0.3,0.412,0.325
		c0.162,0.012,0.287,0,0.425-0.037l0.037,0.325c-0.162,0.05-0.35,0.075-0.55,0.062c-0.513-0.037-0.787-0.35-0.763-0.825
		c0.025-0.387,0.287-0.787,0.812-0.762c0.487,0.025,0.65,0.425,0.625,0.8C29.75,51.15,29.737,51.225,29.725,51.262 M27.85,51.15
		c0.037,0.25,0.075,0.525,0.1,0.613l-0.487-0.05c-0.025-0.062-0.062-0.238-0.088-0.5s-0.112-0.35-0.312-0.375l-0.138-0.012
		l-0.088,0.812l-0.463-0.05l0.213-2.05c0.15-0.012,0.375-0.012,0.638,0.025c0.312,0.037,0.525,0.1,0.65,0.238
		c0.112,0.113,0.175,0.262,0.15,0.45C28,50.512,27.787,50.675,27.6,50.725v0.012C27.75,50.8,27.812,50.95,27.85,51.15
		 M25.225,50.975c-0.025,0.175-0.05,0.35-0.062,0.45L24.75,51.35l0.013-0.225H24.75c-0.125,0.15-0.312,0.2-0.513,0.175
		c-0.35-0.062-0.587-0.412-0.513-0.875c0.075-0.5,0.45-0.75,0.8-0.688c0.188,0.025,0.312,0.125,0.362,0.238H24.9l0.138-0.812
		l0.462,0.075L25.225,50.975z M23.362,50.2l-0.188,0.875l-0.462-0.1l0.175-0.825c0.038-0.188,0-0.338-0.163-0.375
		C22.6,49.75,22.5,49.825,22.45,49.9c-0.025,0.025-0.025,0.075-0.038,0.113l-0.188,0.863l-0.462-0.1l0.212-1.012
		c0.038-0.188,0.062-0.338,0.087-0.475l0.4,0.088l-0.025,0.213h0.013c0.087-0.088,0.263-0.2,0.513-0.137
		C23.263,49.512,23.45,49.762,23.362,50.2 M21.462,49.787L21.325,50.3c-0.038,0.137-0.062,0.275-0.062,0.363L20.85,50.55l0.013-0.15
		H20.85c-0.125,0.088-0.3,0.113-0.462,0.075c-0.3-0.075-0.413-0.338-0.35-0.575c0.1-0.387,0.487-0.475,1.013-0.338V49.55
		c0.025-0.075,0.013-0.2-0.212-0.262c-0.15-0.037-0.325-0.025-0.438,0l-0.013-0.312c0.112-0.025,0.337-0.05,0.6,0.012
		C21.475,49.113,21.55,49.438,21.462,49.787 M19.163,49.262c-0.025,0.075-0.062,0.137-0.075,0.175l-0.925-0.312
		c-0.05,0.188,0.112,0.338,0.312,0.412c0.15,0.05,0.288,0.075,0.413,0.075l-0.038,0.325c-0.163,0.012-0.362-0.012-0.55-0.088
		c-0.487-0.162-0.675-0.537-0.525-0.988c0.125-0.363,0.487-0.7,0.987-0.525C19.225,48.475,19.288,48.9,19.163,49.262 M17.375,48.225
		c-0.237-0.088-0.45,0.025-0.538,0.25c-0.1,0.262,0.025,0.463,0.237,0.55c0.1,0.037,0.188,0.05,0.275,0.05l-0.075,0.35
		c-0.087,0.012-0.25-0.012-0.425-0.088c-0.462-0.175-0.65-0.562-0.475-1.012c0.163-0.412,0.575-0.65,1.1-0.45
		c0.112,0.05,0.237,0.113,0.312,0.188l-0.2,0.3C17.55,48.325,17.487,48.275,17.375,48.225 M16.038,48.025l-0.362,0.825l-0.438-0.188
		l0.337-0.775c0.075-0.175,0.075-0.325-0.087-0.4c-0.125-0.05-0.225,0-0.288,0.062c-0.025,0.025-0.05,0.062-0.062,0.1l-0.35,0.8
		l-0.438-0.188l0.413-0.95c0.075-0.175,0.138-0.325,0.188-0.45l0.375,0.162l-0.062,0.2h0.013c0.1-0.062,0.3-0.137,0.525-0.037
		C16.087,47.338,16.212,47.625,16.038,48.025 M14.163,47.512l-0.875-0.45c-0.075,0.188,0.05,0.35,0.25,0.45
		c0.138,0.075,0.275,0.113,0.4,0.137l-0.087,0.312c-0.163-0.012-0.35-0.075-0.538-0.162c-0.462-0.238-0.587-0.637-0.362-1.062
		c0.175-0.338,0.587-0.612,1.05-0.375c0.438,0.225,0.425,0.65,0.263,0.988C14.237,47.412,14.188,47.475,14.163,47.512
		 M11.812,46.938l0.75-1.325l0.413,0.237l-0.75,1.325L11.812,46.938z M11.225,45.688c-0.15,0.237-0.075,0.463,0.125,0.588
		c0.1,0.062,0.175,0.088,0.25,0.1L11.462,46.7c-0.087-0.012-0.237-0.075-0.4-0.162c-0.413-0.263-0.525-0.688-0.263-1.088
		c0.237-0.375,0.688-0.525,1.163-0.213c0.1,0.062,0.212,0.162,0.275,0.237l-0.25,0.263c-0.038-0.05-0.087-0.112-0.2-0.175
		C11.587,45.412,11.35,45.475,11.225,45.688 M10.4,44.575c-0.1-0.062-0.175-0.062-0.212-0.013c-0.05,0.062-0.013,0.125,0.1,0.287
		c0.175,0.25,0.188,0.438,0.062,0.612c-0.163,0.237-0.462,0.275-0.825,0.025c-0.163-0.112-0.275-0.263-0.337-0.375l0.262-0.225
		c0.038,0.1,0.15,0.25,0.262,0.325C9.825,45.3,9.9,45.288,9.95,45.225C10,45.163,9.975,45.1,9.875,44.95
		c-0.2-0.263-0.2-0.475-0.087-0.625c0.163-0.237,0.488-0.263,0.787-0.05c0.15,0.1,0.25,0.225,0.288,0.325l-0.25,0.213
		C10.575,44.763,10.5,44.65,10.4,44.575 M8.125,44.412L8.125,44.412c-0.35-0.287-0.425-0.725-0.1-1.112
		c0.312-0.375,0.762-0.412,1.137-0.1c0.35,0.3,0.387,0.737,0.1,1.1C8.9,44.725,8.438,44.675,8.125,44.412 M7.562,43.075l-0.688-0.7
		c-0.125,0.15-0.062,0.35,0.1,0.513C7.088,43,7.2,43.075,7.312,43.138l-0.188,0.275c-0.15-0.062-0.312-0.175-0.45-0.325
		C6.312,42.725,6.312,42.3,6.65,41.963c0.275-0.275,0.75-0.4,1.113-0.025c0.35,0.35,0.212,0.75-0.062,1.013
		C7.65,43.013,7.6,43.05,7.562,43.075 M5.188,41.425c-0.238-0.3-0.325-0.575-0.3-0.838s0.175-0.513,0.425-0.7
		c0.55-0.425,1.175-0.275,1.6,0.263c0.163,0.213,0.25,0.412,0.275,0.513l-0.363,0.162C6.8,40.7,6.738,40.575,6.6,40.387
		c-0.238-0.312-0.6-0.412-0.962-0.125C5.3,40.525,5.262,40.9,5.512,41.212c0.062,0.088,0.125,0.15,0.163,0.162l0.35-0.275l-0.2-0.25
		l0.288-0.225l0.475,0.612l-0.863,0.675C5.587,41.825,5.363,41.65,5.188,41.425 M12.763,45.213c0.075-0.125,0.212-0.162,0.362-0.088
		s0.175,0.225,0.1,0.35c-0.075,0.125-0.212,0.162-0.362,0.088l0,0C12.725,45.487,12.7,45.338,12.763,45.213 M45.05,47.688
		c0.15-0.05,0.287,0.025,0.325,0.15c0.037,0.137-0.013,0.275-0.175,0.325l0,0c-0.15,0.05-0.287-0.025-0.325-0.162
		C44.838,47.875,44.9,47.738,45.05,47.688 M54.3,42.787c0.125-0.1,0.275-0.088,0.362,0.025c0.088,0.112,0.075,0.263-0.05,0.362l0,0
		c-0.125,0.1-0.275,0.075-0.362-0.025C54.162,43.037,54.175,42.888,54.3,42.787 M57.725,40.312l0.725,0.275
		c0.088,0.037,0.2,0.075,0.275,0.112l0.012-0.013c-0.05-0.062-0.125-0.15-0.188-0.225l-0.488-0.6l0.3-0.4l0.588,0.888
		c0.35,0.537,0.45,0.8,0.475,1.025c0.012,0.213-0.05,0.388-0.113,0.487L58.937,41.7c0.025-0.05,0.05-0.125,0.062-0.213
		c0.012-0.075,0-0.188-0.037-0.275c-0.012-0.025-0.025-0.05-0.037-0.062s-0.037-0.025-0.075-0.037l-1.438-0.388L57.725,40.312z
		 M48.237,14.888l-3.338-1.1l-0.225,0.675l3.062,1.012l-0.175,0.537L44.5,15l-0.25,0.775l3.412,1.125l-0.188,0.588l-4.8-1.575
		l1.037-3.163l4.725,1.55L48.237,14.888z M37.862,12.25l-3.5-0.237l-0.05,0.712l3.213,0.225l-0.037,0.562l-3.213-0.225l-0.05,0.812
		l3.575,0.25l-0.037,0.613l-5.037-0.35L32.95,11.3l4.963,0.337L37.862,12.25z M22.775,15.575l-0.525-3.288l4.912-0.788l0.1,0.612
		l-3.475,0.55l0.112,0.7l3.187-0.513l0.088,0.562l-3.188,0.513l0.125,0.8l3.537-0.562l0.1,0.612L22.775,15.575z M16.4,17.65
		l-1.237-3.087l1.362-0.538l1.237,3.088L16.4,17.65z M64,32c0-12.125-14.05-21.625-32-21.625c-7.925,0-15.487,1.9-21.288,5.362
		L10.5,15.862c0,0-0.962-1.462-1.288-1.975c-0.337,0.663-3.938,7.8-4.275,8.462c0.75-0.037,8.725-0.487,9.475-0.525
		C14.1,21.35,13.288,20.1,13.288,20.1l0.237-0.138c5.012-2.912,11.587-4.525,18.487-4.525c14.85,0,26.925,7.425,26.925,16.55
		c0,5.787-4.787,11.062-12.8,14.1v-0.013c-4.112,1.563-8.938,2.475-14.125,2.475C17.15,48.55,5.075,41.125,5.075,32
		c0-3.487,1.775-6.725,4.787-9.4l-5.8,0.325l1.788-3.537C2.163,22.912,0,27.263,0,32c0,12.125,14.05,21.625,32,21.625
		c7.138,0,13.65-1.5,18.912-4.075l0.225,0.175l-0.112-0.238C59.275,45.425,64,39.05,64,32 M51.812,35.812
		c-0.175,0.125-0.65,0.287-1.912,0.287c-1.725,0-2.25-0.15-2.4-0.25c-0.138-0.088-0.362-0.375-0.362-1.375
		c0-0.013-0.013-0.45-0.013-0.45h-2.737l0.013,0.638c0,1.45,0.35,2.438,1.062,2.925c0.688,0.487,2.013,0.725,4.062,0.725
		c2.263,0,3.7-0.237,4.388-0.737c0.713-0.513,1.05-1.575,1.05-3.25c0-1.375-0.3-2.263-0.9-2.713c-0.588-0.438-1.812-0.7-3.75-0.8
		c-2.025-0.1-2.562-0.25-2.713-0.325c-0.112-0.062-0.312-0.3-0.312-1.188c0-0.562,0.138-0.925,0.425-1.088
		c0.213-0.125,0.75-0.275,2.112-0.275c1.188,0,1.575,0.138,1.7,0.225c0.138,0.1,0.325,0.362,0.375,1.125
		c0-0.013,0.013,0.25,0.013,0.25l0.013,0.188l0.2-0.013h2.537L54.65,29.05c0-1.3-0.362-2.2-1.075-2.662
		c-0.7-0.45-1.987-0.675-3.938-0.675c-2.062,0-3.4,0.237-4.112,0.737l0,0c-0.713,0.5-1.088,1.5-1.088,2.963
		c0,1.45,0.3,2.375,0.912,2.838c0.588,0.45,1.875,0.713,3.925,0.838l1.312,0.075c0.862,0.05,1.2,0.188,1.325,0.3
		c0.125,0.1,0.263,0.362,0.263,1C52.162,35.362,51.975,35.688,51.812,35.812 M40.237,35.812c-0.175,0.125-0.65,0.287-1.912,0.287
		c-1.737,0-2.25-0.15-2.4-0.25c-0.138-0.088-0.362-0.375-0.362-1.375c0-0.013-0.013-0.45-0.013-0.45h-2.737l0.013,0.638
		c0,1.45,0.35,2.438,1.05,2.925c0.688,0.487,2.025,0.725,4.062,0.725c2.263,0,3.7-0.237,4.388-0.737c0.7-0.513,1.05-1.575,1.05-3.25
		c0-1.375-0.3-2.263-0.9-2.713c-0.588-0.438-1.812-0.7-3.75-0.8c-2.025-0.1-2.562-0.25-2.713-0.325
		C35.9,30.425,35.7,30.187,35.7,29.3c0-0.562,0.138-0.925,0.425-1.088c0.213-0.125,0.75-0.275,2.112-0.275
		c1.188,0,1.575,0.138,1.7,0.225c0.138,0.1,0.325,0.362,0.388,1.125c0-0.013,0.013,0.25,0.013,0.25l0.013,0.188l0.2-0.013h2.537
		l-0.013-0.662c0-1.3-0.362-2.2-1.075-2.662c-0.7-0.45-1.987-0.675-3.938-0.675c-2.062,0-3.4,0.237-4.112,0.737
		c-0.725,0.5-1.088,1.5-1.088,2.963c0,1.45,0.3,2.375,0.912,2.838c0.588,0.45,1.875,0.713,3.925,0.838l1.312,0.075
		c0.862,0.05,1.2,0.188,1.325,0.3c0.125,0.1,0.263,0.362,0.263,1C40.6,35.362,40.4,35.688,40.237,35.812 M28.625,31.5
		c-0.225,0.225-0.737,0.35-1.475,0.35h-3.225v-3.725h3.387c0.888,0,1.237,0.162,1.362,0.312c0.138,0.15,0.287,0.525,0.287,1.525
		C28.963,30.938,28.775,31.338,28.625,31.5 M31.338,32.138c0.312-0.475,0.475-1.325,0.475-2.588c0-1.388-0.312-2.362-0.95-2.912
		c-0.625-0.55-1.725-0.812-3.325-0.812h-6.412V38.2h2.8v-4.05h3.225c1.162,0,1.713,0.525,1.713,1.662V38.2h2.8v-2.85
		c0-1.325-0.6-2.112-1.675-2.4C30.588,32.763,31.088,32.513,31.338,32.138 M12.163,28.525c0.225-0.2,0.837-0.438,2.487-0.438
		c1.525,0,2.075,0.138,2.275,0.25c0.175,0.1,0.388,0.412,0.438,1.287l0.013,0.188H20.2v-0.2c0-1.638-0.35-2.675-1.062-3.162
		c-0.688-0.487-2.15-0.713-4.45-0.713c-1.75,0-2.962,0.15-3.712,0.45C10.212,26.5,9.638,27.112,9.275,28
		c-0.3,0.725-0.438,2.375-0.438,5.037c0,2.125,0.363,3.513,1.125,4.225c0.75,0.713,2.213,1.062,4.463,1.062
		c2.438,0,3.975-0.263,4.712-0.787c0.75-0.55,1.112-1.688,1.112-3.5l-0.05-2.575h-5.95v2.075h3.15c0,0.138,0,0.287,0,0.287
		c0,1.188-0.25,1.625-0.45,1.787c-0.212,0.162-0.8,0.362-2.35,0.362c-1.587,0-2.188-0.237-2.413-0.438
		c-0.225-0.188-0.487-0.713-0.487-2.112l-0.025-1.537l0.013-1.2C11.675,29.25,11.938,28.713,12.163,28.525"/>
</g>
</svg>
